<svg width="1438" height="639" viewBox="0 0 1438 639" fill="none" xmlns="http://www.w3.org/2000/svg">
<path d="M1438 0.0525684L5.0443e-05 0.0524292L3.36944e-05 212.201C4.54011 213.398 9.26975 214.29 13.7909 215.907C38.7281 224.87 51.6469 243.344 51.0972 272.429C50.7275 292.319 48.1779 312.188 46.2254 332.015C42.8606 366.17 41.4768 400.083 55.5709 432.139C59.4286 440.903 64.035 449.31 68.8499 457.476C70.0916 459.576 73.4184 460.174 75.7785 461.455C76.9254 458.799 79.1812 456.038 79.0011 453.498C78.4135 445.311 77.6457 436.988 75.6648 429.105C69.1248 403.085 74.48 380.928 91.3323 361.552C101.645 349.702 105.275 334.986 103.199 318.79C102.024 309.596 99.9196 300.548 98.4978 291.385C97.0951 282.369 95.6828 272.974 103.474 266.393C111.189 259.875 119.739 259.613 128.762 263.37C150.571 272.471 158.04 306.247 137.264 322.695C134.923 324.553 132.411 326.452 130.762 328.961C129.406 331.018 128.297 334.283 128.838 336.487C129.179 337.893 132.781 339.226 134.828 339.079C157.31 337.526 175.689 318.496 180.143 293.631C183.707 273.751 179.053 255.12 174.902 236.238C171.111 219.003 165.111 202.188 166.95 183.841C168.542 167.887 177.518 163.09 189.347 172.463C200.673 181.437 206.009 194.904 210.313 208.853C219.137 237.455 217.383 266.383 212.663 295.573C209.327 316.219 205.374 337.306 212.123 357.889C215.943 369.539 221.8 380.382 226.814 391.55C231.62 402.246 236.994 412.679 241.287 423.616C247.287 438.888 246.207 454.128 239.686 469.159C234.823 480.379 230.008 491.694 226.094 503.345C220.435 520.17 221.08 537.342 226.729 554.062C230.179 564.254 234.264 574.215 238.548 584.019C239.591 586.401 242.539 587.766 244.614 589.592C245.714 586.653 247.856 583.651 247.723 580.775C247.249 570.457 245.316 560.182 245.325 549.895C245.325 544.07 247.221 537.783 249.695 532.524C254.168 522.983 260.301 522.269 268.054 528.546C271.049 530.971 274.85 532.167 278.281 533.92C278.319 529.722 279.001 525.387 278.281 521.356C274.926 502.411 273.125 483.57 278.319 464.656C280.347 457.277 284.48 452.459 290.859 449.247C296.261 446.529 301.56 443.212 306.251 439.213C313 433.451 313.663 428.129 308.289 420.729C299.996 409.32 290.669 398.824 282.565 387.257C278.129 380.917 274.48 373.507 271.978 365.971C268.699 356.094 274.679 339.216 283.968 338.765C287.882 338.576 293.143 339.52 295.522 342.312C297.967 345.178 298.925 351.276 298.072 355.307C297.531 357.857 292.508 359.348 289.399 361.069C286.84 362.486 284.12 363.546 281.475 364.774C283.039 367.44 284.091 370.935 286.271 372.615C293.778 378.367 301.541 383.741 309.464 388.758C320.393 395.675 331.786 396.735 343.178 390.049C353.188 384.182 359.339 371.24 355.112 359.757C348.363 341.399 340.24 323.566 331.662 306.142C315.985 274.318 318.44 230.077 339.776 202.629C350.771 188.48 365.225 179.18 383.233 184.303C400.92 189.33 412.341 202.115 418.616 221.354C425.762 243.27 421.914 264.966 419.099 286.735C415.185 316.985 409.081 346.889 410.891 377.863C412.341 402.739 420.549 423.889 436.501 441.134C449.856 455.577 463.96 469.159 477.495 483.402C493.333 500.07 504.005 519.845 505.503 544.574C506.593 562.669 502.015 579.421 494.11 594.956C488.603 605.798 482.063 616 476.044 626.528C473.817 630.412 470.974 635.45 475.4 638.399C477.722 639.942 483.428 638.294 485.978 635.933C527.511 597.559 541.008 540.071 521.293 486.519C514.507 468.078 505.759 450.528 498.821 432.149C494.224 419.963 490.631 407.21 487.693 394.394C483.712 377.076 487.636 361.121 497.333 347.025C503.882 337.484 510.848 328.3 517.578 318.895C529.189 302.679 531.587 284.888 524.232 265.858C519.986 254.869 515.199 244.12 510.384 233.414C500.29 210.984 497.314 186.885 500.602 162.743C504.659 132.955 522.374 120.328 549.302 124.695C574.618 128.799 599.11 152.856 603.603 180.503C605.365 191.367 604.029 203.28 602.2 214.332C599.006 233.645 593.944 252.58 590.399 271.841C586.608 292.434 589.66 312.493 595.489 332.33C601.129 351.517 606.986 370.736 610.891 390.395C615.412 413.141 611.517 434.28 595.385 451.2C592.115 454.632 589.489 458.904 587.044 463.134C586.191 464.603 586.02 468.141 586.864 468.875C588.257 470.093 590.968 470.649 592.693 470.03C618.095 460.919 640.786 427.111 642.624 397.333C644.056 374.011 637.8 352.032 634.577 329.496C632.577 315.516 632.037 301.44 639.411 288.54C645.591 277.74 655.78 276.071 664.216 284.888C671.761 292.77 674.424 303.308 676.936 313.889C679.988 326.736 683.144 339.573 685.864 352.504C689.722 370.851 701.484 383.195 712.422 396.137C713.654 397.596 716.668 397.228 718.858 397.701C719.142 395.276 720.27 392.474 719.55 390.5C716.488 382.124 712.507 374.158 709.531 365.75C704.1 350.405 703.19 334.629 712.005 320.68C718.678 310.12 726.753 300.422 735.236 291.553C756.61 269.206 762.079 243.417 751.16 213.23C748.847 206.838 746.876 200.288 744.639 193.487C746.894 191.702 748.913 190.107 751.624 187.976C752.866 191.041 754.013 193.539 754.913 196.142C763.093 219.622 776.097 238.841 795.025 253.105C802.484 258.731 810.493 261.261 819.393 260.862C831.744 260.306 837.724 250.88 833.374 238.096C829.905 227.893 825.64 218.037 822.009 207.898C817.564 195.492 820.825 190.139 832.767 190.38C840.189 190.527 847.61 191.828 855.032 191.86C865.742 191.902 869.505 184.639 863.97 174.573C860.501 168.264 856.396 162.345 852.198 156.582C840.189 140.103 834.189 121.577 836.189 100.302C838.047 80.5478 854.88 67.2282 877.002 72.6862C902.205 78.8999 920.849 109.517 916.327 138.025C912.925 159.469 908.821 180.765 904.954 202.115C900.091 228.974 902.271 255.036 911.967 280.29C916.384 291.794 920.63 303.382 925.057 314.875C934.781 340.119 935.35 365.824 929.142 392.169C925.938 405.751 923.01 419.533 921.341 433.419C919.294 450.507 923.768 466.472 931.123 481.534C934.469 488.388 937.36 495.504 940.459 502.495C941.189 502.274 941.919 502.064 942.648 501.844C942.648 499.566 943.141 497.11 942.554 495.042C940.98 489.49 938.876 484.137 937.085 478.658C930.166 457.466 932.744 438.069 947.985 422.598C963.226 407.116 967.017 388.8 964.012 366.884C962.117 353.06 961.055 338.523 967.946 325.55C969.548 322.527 974.021 318.203 975.472 318.885C978.77 320.438 982.239 324.269 983.424 328.027C986.078 336.392 983.917 344.223 978.097 350.615C976.315 352.567 974.675 354.677 972.969 356.713L974.031 358.917C975.889 358.34 978.154 358.319 979.538 357.08C984.381 352.725 989.168 348.222 993.518 343.288C1003.51 331.963 1002 317.993 1000.18 304.127C999.025 295.342 997.546 286.599 996.03 276.659C1000.4 276.659 1002.99 276.827 1005.55 276.627C1014.23 275.955 1015.83 273.342 1012.64 264.483C1008.19 252.129 1003.3 239.964 998.949 227.578C991.821 207.31 991.992 186.79 999.679 166.921C1002.26 160.245 1006.91 153.937 1011.94 149.214C1018.03 143.504 1025.52 144.743 1032.19 149.371C1042.42 156.446 1048.45 167.026 1053.05 179.128C1060.38 198.431 1068.24 217.481 1075.92 236.616C1076.5 238.054 1077.28 239.555 1078.32 240.573C1079.82 242.032 1081.57 243.732 1083.37 244.005C1084.16 244.12 1086 241.045 1086.23 239.24C1087.34 230.843 1088.14 222.393 1088.91 213.954C1090.52 196.268 1097.37 189.131 1113.59 188.396C1115.03 188.333 1116.48 188.323 1117.9 188.092C1130.62 186.014 1133.2 180.87 1127.2 168.286C1123.16 159.826 1117.91 152.048 1114.1 143.483C1110.85 136.167 1108.13 128.348 1106.55 120.412C1104.74 111.344 1108.79 106.883 1117.17 106.82C1133.57 106.694 1146.4 120.412 1148.03 141.079C1149.25 156.446 1149.22 171.928 1149.83 187.347C1150.81 211.887 1159.68 233.782 1168.88 255.477C1178.22 277.477 1178.95 299.425 1170.17 321.824C1165.3 334.251 1160.86 346.878 1156.21 359.411C1155.66 360.891 1154.71 362.329 1154.63 363.83C1154.5 366.034 1154.98 368.28 1155.2 370.516C1157.16 370.117 1159.61 370.421 1161.02 369.225C1185.59 348.148 1207.85 315.568 1195.15 269.994C1190.78 254.302 1187.67 238.064 1185.36 221.837C1183.22 206.838 1187.09 192.721 1195.58 180.619C1203.67 169.104 1213.44 170.185 1219.22 183.285C1220.84 186.958 1221.4 191.367 1221.74 195.513C1222.14 200.54 1221.32 205.704 1221.95 210.669C1222.29 213.377 1224.54 215.802 1225.92 218.352C1228.04 216.579 1231.14 215.287 1232.09 212.936C1239 196.027 1240.46 178.267 1238.65 159.868C1237.29 145.992 1236.24 131.969 1236.45 118.04C1236.58 109.202 1242.02 102.474 1248.56 97.2578C1253.44 93.3637 1258.5 89.6376 1262.86 85.1033C1273.49 74.0193 1278.37 60.5421 1275.92 44.0841C1275 37.9334 1273.62 30.8904 1281.13 27.8045C1288.37 24.8236 1296.5 28.0879 1300.31 35.918C1307.71 51.127 1309.24 67.1967 1305.01 83.8332C1300.25 102.506 1294.44 120.906 1290.71 139.82C1284.46 171.466 1292.71 200.215 1307.84 227.001C1308.34 227.883 1309.14 228.576 1309.87 229.258C1310.21 229.573 1310.73 229.667 1312.69 230.549C1313.06 227.096 1313.87 224.031 1313.61 221.081C1312.6 210.008 1310.5 198.997 1310.33 187.934C1310.23 181.637 1312.14 174.73 1314.81 169.062C1322.01 153.801 1336.77 153.098 1345.24 167.698C1354.96 184.471 1357.04 203.343 1355.52 222.918C1353.71 246.241 1351.23 269.553 1350.65 292.917C1349.92 322.496 1360.6 348.39 1375.47 372.279C1376.85 374.483 1380.03 375.302 1382.38 376.771C1382.97 376.163 1383.56 375.554 1384.14 374.945C1381.93 365.834 1379.24 356.818 1377.6 347.581C1375.24 334.346 1372.69 321.005 1372.04 307.601C1371.42 294.933 1378.05 284.972 1386.34 276.585C1389.33 273.573 1392.31 270.529 1395.03 267.233C1399.83 261.418 1401.23 254.659 1398.37 247.28C1395.35 239.46 1391.95 231.829 1388.94 223.999C1382.68 207.73 1386.25 189.708 1397.88 178.015C1409.58 166.249 1423.43 166.858 1434.29 179.621C1435.28 180.776 1436.25 181.962 1437.98 184.03L1437.98 0.0736255L1438 0.0525684Z" fill="#FFFCF8"/>
</svg>
